<svg width="466" height="171" fill="none" xmlns="http://www.w3.org/2000/svg"><path d="M19.12 48.748l3.648-.867.433 1.824-1.226.291c-5.092 1.21-11.915 7.519-20.466 18.926l.433 1.824c.212.893 5.755.86 16.63-.097 4.184.713 7.038 1.952 8.561 3.718l.142.598c.333 5.964-7.733 15.99-24.2 30.081l-1.225.291c-.023-.938 4.816-5.711 14.514-14.32 6.557-8.061 9.844-13.108 9.863-15.14-.736-3.098-6.767-4.234-18.094-3.41l.149.627c-5.04.334-7.704-.107-7.993-1.323-.953-4.01 5.324-11.684 18.83-23.023zM40.563 59.282l.77-.183.372 1.567c-1.73.411-2.397 2.206-2.003 5.385l-.77.182-2.123-1.964-.366-1.54c.143-1.68 1.516-2.829 4.12-3.447zm-4.791 11.014l.798-.19c1.062-.09 1.697.3 1.905 1.174-3.137 2.934-5.115 6.144-5.933 9.63L32.701 85l.365 1.539 2.338-.556c2.917-2.76 6.258-7.118 10.023-13.071l.798-.19c-4.05 9.736-8.252 15.12-12.603 16.154l-3.448-4.12c1.097-6.704 2.963-11.524 5.598-14.459zM47.568 67.855l2.366-.562.19.798c.293 1.235-.73 5.082-3.07 11.54l.182.77c4.645-6.645 7.433-10.077 8.364-10.299l1.142 1.385c.164 2.973.47 5.4.917 7.28.176.742 1.142 1.345 2.9 1.81 2.108-.5 5.393-1.843 9.853-4.026l.798-.19.19.798c-3.673 2.539-7.163 4.201-10.47 4.987-3.135.745-5.201-.983-6.199-5.182.296-1.034.302-2.15.018-3.347-.798.19-4.115 4.862-9.95 14.017l-.797.19c-.24-1.007.95-7.663 3.566-19.969z" fill="#000"/><path d="M71.935 64.836l.826-.196 4.415-.176.603 2.537-1.885-.456-.855.204c-3.915.93-5.407 3.352-4.477 7.266l1.885.456.855-.203L94.54 63.019l.4 1.682-21.896 12.278c-3.01-.248-4.806-1.598-5.389-4.05.392-2.742 1.82-5.44 4.28-8.093z" fill="#000"/><path d="M101.692 54.725c2.487.413 3.957 1.107 4.41 2.084-1.514 4.696-4.261 8.47-8.24 11.323-.852.724-1.535 1.147-2.048 1.269l-1.093-1.306c5.255-4.581 8.119-7.861 8.593-9.84l-.176-.742c-7.08 3.067-10.075 6.9-8.982 11.499l.352 1.482c.352 1.482 1.517 1.989 3.493 1.52l14.089-6.48.741-.176.176.741c-7.204 4.321-11.595 6.67-13.172 7.044l-.741.176c-2.926.695-5.255-.317-6.985-3.038-1.192-5.016 2.002-10.202 9.583-15.556z" fill="#000"/><path d="M117.177 49.811l1.311-.311.156.655-.837 2.307.156.655 5.983-4.221.973 1.183c-4.294 5.417-6.1 9.56-5.418 12.43l1.104 4.645.656-.155 23.254-16.697.656-.156c-.361 1.27-8.009 7.273-22.943 18.008l-1.311.312c-1.434-.121-2.413-1.284-2.937-3.488-.772-3.25-.009-6.924 2.289-11.023-1.995.474-3.368.569-4.117.285-4.113 3.306-6.939 5.142-8.478 5.508-.244-1.026 2.25-3.245 7.482-6.656-.167-.703.507-1.797 2.021-3.28z" fill="#000"/><path d="M153.796 42.345c2.487.413 3.957 1.108 4.41 2.084-1.514 4.696-4.261 8.47-8.24 11.323-.852.724-1.535 1.147-2.048 1.27l-1.093-1.307c5.255-4.58 8.12-7.861 8.593-9.84l-.176-.742c-7.081 3.068-10.074 6.9-8.982 11.5l.352 1.482c.352 1.482 1.517 1.988 3.493 1.518l14.089-6.479.741-.176.176.741c-7.204 4.322-11.595 6.67-13.172 7.045l-.741.176c-2.926.695-5.255-.318-6.985-3.038-1.192-5.017 2.003-10.202 9.583-15.557z" fill="#000"/><path d="M172.838 15.267l.57-.136 2.016.756c.619 2.603-1.676 10.054-6.884 22.353.192 1.4.248 2.902.167 4.507-.11 1.311-.812 5.664-2.107 13.058l.136.57c.736.226 1.75.186 3.042-.12l.278 1.168c-.874.207-1.598.58-2.173 1.118l-2.722-1.19 1.578-12.75.041-3.504-.571.136c-1.15 4.368-2.338 7.1-3.563 8.194l-.57.135-.142-.598c5.028-10.269 7.76-18.245 8.196-23.93.579-.94 1.147-3.916 1.703-8.926l1.005-.841zm.684 2.879c-.928 2.007-2.033 5.933-3.314 11.778l.598-.142c2.906-6.613 4.201-10.584 3.885-11.914l-1.169.278zM182.95 35.9l.712-.169c-2.823 6.874-3.986 11.356-3.49 13.446 1.15 1.715 2.077 2.488 2.78 2.321 3.721-5.461 5.642-9.882 5.762-13.263l1.397-.332.338 1.425c.173 11.12-.141 18.121-.942 21.002l.684-.163c1.517-3.332 3.489-6.059 5.915-8.18l.497.694c-5.197 6.856-8.26 13.777-9.19 20.763-2.019 18.286-5.632 28.048-10.838 29.285l-1.045-1.227-.169-.713c-.935-3.933 3.188-16.787 12.368-38.562.914-4.433 1.269-10.208 1.063-17.326-2.722 5.103-4.796 7.824-6.221 8.163-1.975-.032-3.24-1.218-3.796-3.555-.893-3.762.498-8.298 4.175-13.609zm2.593 33.983c-5.396 13.026-7.939 22.433-7.628 28.221l.713-.169c2.166-.515 4.735-10.53 7.706-30.046l-.791 1.994zM230.836 24.523l.712-.17c-2.823 6.875-3.987 11.357-3.49 13.447 1.15 1.714 2.077 2.488 2.78 2.32 3.721-5.46 5.641-9.881 5.762-13.263l1.396-.331.339 1.425c.173 11.12-.141 18.12-.943 21.001l.685-.162c1.517-3.332 3.489-6.059 5.915-8.181l.497.695c-5.197 6.856-8.26 13.777-9.19 20.763-2.019 18.286-5.632 28.048-10.839 29.285l-1.044-1.228-.169-.712c-.935-3.934 3.188-16.788 12.368-38.562.914-4.433 1.268-10.208 1.063-17.326-2.722 5.103-4.796 7.824-6.221 8.163-1.975-.033-3.24-1.218-3.796-3.555-.894-3.762.498-8.299 4.175-13.609zm2.593 33.983c-5.397 13.026-7.939 22.433-7.628 28.221l.712-.17c2.167-.514 4.735-10.53 7.707-30.046l-.791 1.995zM252.847 19.323c2.774-.659 5.453.562 8.037 3.662-1.143 8.201-5.012 13.085-11.606 14.651l-1.51.36c-1.14.27-2.189-.806-3.146-3.228-.062-8.457 1.988-13.18 6.149-14.168-.117-.495.575-.92 2.076-1.277zm-3.793 4.063l2.97 2.487c-2.763 1.72-4.027 3.074-3.792 4.063l.182.77 2.963 2.457-1.482.352-2.639-.969-.382 1.687.183.77c.234.988 1.102 1.303 2.604.947 4.085-.97 7.193-4.62 9.323-10.948-1.242-2.355-2.291-3.43-3.146-3.227l-6.784 1.611zM267.472 11.934l1.882-.447c.153.646-1.156 6.247-3.928 16.802l.26 3.883.298 1.254 1.254-.297c2.532-2.95 5.353-8.69 8.466-17.219l.627-.149.149.627c-1.257 5.86-1.717 9.502-1.378 10.927.327.786.842 1.095 1.545.928l2.986-1.372.149.627c.1.418-.587 1.244-2.061 2.477-2.09.497-3.53-.917-4.32-4.243-3.241 6.05-5.355 9.192-6.343 9.427-.916-.224-1.593-.284-2.03-.18l-.596-2.509c-.6-2.527.463-9.163 3.189-19.909l-.149-.627zM287.057 9.449l1.311-.312.156.656-.837 2.307.156.655 5.983-4.222.974 1.184c-4.294 5.417-6.1 9.56-5.419 12.43l1.104 4.645.656-.156L314.395 9.94l.656-.156c-.361 1.27-8.008 7.273-22.943 18.008l-1.311.311c-1.434-.12-2.413-1.283-2.937-3.488-.772-3.249-.009-6.923 2.29-11.023-1.996.474-3.368.57-4.118.286-4.113 3.306-6.939 5.142-8.478 5.507-.244-1.026 2.25-3.244 7.482-6.656-.167-.703.507-1.796 2.021-3.28z" fill="#000"/><path d="M318.113 1.378l1.653-.393c.798-.19 1.863.702 3.195 2.674-4.333 1.029-6.37 2.085-6.113 3.168.23.97 2.929 1.473 8.097 1.51l2.207 2.065c-4.785 8.585-9.373 13.398-13.762 14.441l-.583-2.451c2.603-.619 6.465-3.885 11.584-9.798l.114-2.437c-6.152.639-9.521-.277-10.108-2.747-.772-3.25.466-5.26 3.716-6.032zM336.338 15.476l.599-.142.142.599c-.792 4.946-1.483 7.489-2.072 7.629l-.291-1.226c-.488-2.052.053-4.339 1.622-6.86zM120.93 121.826c3.635-.344 5.648.28 6.037 1.874-4.293 8.768-10.627 16.256-19.003 22.463-1.907 1.331-2.362 4.035-1.366 8.115 5.849 1.064 13.656 4.918 23.421 11.561l.125.512c-13.787-7.389-21.506-10.883-23.157-10.48l-.29 1.157 1.418 5.806c.94 3.852 1.942 5.648 3.004 5.388-.198.752-.251 1.318-.158 1.698l-.513.125c-1.195.292-2.71-2.867-4.545-9.476-.242-2.474-.542-4.441-.899-5.902-1.157.282-3.245-.695-6.265-2.934-.058-.729.208-1.166.796-1.31l3.263-.223.125.512-.636 1.844c.539.23 1.454.188 2.744-.127-.543-9.8-1.114-16.707-1.713-20.723l.512-.125 1.178.255c.475 4.991.715 9.758.718 14.301l1.053-.257c11.75-10.67 17.999-17.765 18.748-21.286l-.383-1.565-3.832.363-.512.125c-11.005 2.687-22.021 9.278-33.05 19.772-.17 1.529-.52 2.358-1.05 2.488-.703.171-1.14-.094-1.311-.796l-.257-1.053c5.085-5.685 12.636-11.238 22.651-16.66 4.712-2.276 9.094-4.09 13.147-5.442zM150.62 113.49c.721-.176 1.652.381 2.791 1.671.176.721-.39 1.654-1.699 2.798-.366-1.499-1.792-1.945-4.278-1.338-9.816 7.142-14.12 13.189-12.91 18.141l.549 2.248c.171.702 1.092 1.262 2.762 1.678l5.976-1.459 1.3-1.102 1.101 1.3c.185.759-2.74 3.845-8.776 9.26-4.031 5.066-5.669 9.145-4.913 12.237l.361 1.48c.176.721 1.109 1.288 2.797 1.7l2.22-.542 25.729-14.185c.241.987-7.032 5.658-21.82 14.014.121.493-1.308 1.104-4.287 1.831l-2.22.542c-2.727-.379-4.393-1.812-5-4.297-.932-3.814 2.512-10.174 10.329-19.079-4.616.443-7.392-1.251-8.328-5.084-1.33-5.445 4.035-12.536 16.097-21.271l2.219-.543z" fill="#000"/><path d="M176.738 111.395l1.793-.438c10.436-2.548 17.469-.667 21.101 5.644l.299 1.224c2.776 11.365-6.929 23.697-29.115 36.996-.797.194-1.001 1.089-.612 2.682l-1.223.299c-.246-1.005-.888-1.904-1.925-2.696l-.153-.626 1.195-.292-1.758-7.201-.104-3.141-.626.153c-2.101-16.014-2.402-24.203-.903-24.569.825-.081 1.32.22 1.487.903l.584 2.391c-2.372.579-1.524 10.967 2.544 31.165l.598-.146c13.583-7.278 22.715-15.861 27.398-25.75 1.469-4.44 1.99-7.533 1.564-9.279-1.205-4.933-5.841-7.41-13.908-7.43-2.829.268-5.079.607-6.749 1.014-8.766 2.141-18.73 8.183-29.893 18.127.065.266-.746 1.308-2.433 3.127l-1.341-.306c.56-2.81 7.628-8.567 21.205-17.271 4.509-2.368 8.167-3.894 10.975-4.58zM224.175 98.424l3.643-.89.445 1.822-1.224.299c-5.085 1.241-11.868 7.592-20.348 19.052l.445 1.822c.218.891 5.76.825 16.628-.201 4.189.686 7.05 1.908 8.585 3.664l.146.598c.37 5.961-7.634 16.038-24.012 30.231l-1.224.299c-.028-.939 4.781-5.742 14.425-14.41 6.506-8.103 9.762-13.17 9.768-15.202-.755-3.093-6.793-4.192-18.115-3.297l.153.626c-5.038.366-7.705-.059-8.001-1.273-.978-4.003 5.251-11.717 18.686-23.14z" fill="#000"/><path d="M287.017 65.074l.264 1.081c-6.224 1.52-18.797 8.24-37.721 20.159-17.433 13.164-26.496 22.484-27.19 27.961.505 2.068 5.617 3.323 15.335 3.765 7.904 2.151 12.593 4.846 14.068 8.085l1.11-.271-.834-.943-4.781-19.581c-.464-1.897-1.397-4.936-2.8-9.117l.978-.812.805.95 4.121 16.876c1.446 5.92 3.713 12.856 6.8 20.807l-.949.805c-1.226-.987-3.339-4.12-6.337-9.4-2.807-3.838-10.894-6.286-24.261-7.345-2.4-.359-3.889-1.724-4.468-4.096l-.396-1.622c5.703-8.671 16.208-18.343 31.516-29.017 6.292-4.613 17.872-10.708 34.74-18.285z" fill="#000"/><path d="M286.597 83.633l4.952-1.21c3.685.85 5.929 2.916 6.731 6.198 1.955 8.007-.982 19.199-8.81 33.576-2.68 3.268-6.079 5.405-10.196 6.41-4.972 1.214-8.81-1.99-11.516-9.613l-.153-.626c-1.017-12.398-.415-18.868 1.805-19.41.182-2.216 3.753-6.365 10.712-12.447.474-.116 2.633-1.075 6.475-2.878zM275.6 92.199l.932 1.1c-3.339.815-5.735 6.195-7.187 16.14l.751 3.073c-1.651.404-1.974 2.664-.968 6.781 1.33 5.446 5.02 8.043 11.071 7.792 8.784-2.146 14.498-13.573 17.141-34.284l-.605-2.476c-1.209-4.952-3.872-6.925-7.989-5.92l-2.448.598c-3.273 1.583-6.839 3.982-10.698 7.196zM336.072 66.907l.174.711c-8.021 14.987-12.278 27.728-12.772 38.223-2.093 8.634-3.558 13.052-4.392 13.256-.968.237-1.626-.357-1.973-1.78-.908-3.719-.974-13.373-.197-28.963l-.711.173c-3.616 11.539-8.78 23.737-15.492 36.595l-.712.174-.173-.712c7.327-15.441 13.28-30.626 17.857-45.556l1.625.357c-1.249 7.402-1.496 18.902-.743 34.501 1.746-3.965 3.711-11.562 5.894-22.791 2.216-7.558 6.088-15.62 11.615-24.188z" fill="#000"/><path d="M347.841 65.33c.721-.176 1.651.38 2.79 1.67.176.722-.39 1.654-1.699 2.798-.366-1.499-1.792-1.945-4.277-1.338-9.817 7.142-14.12 13.19-12.911 18.141l.549 2.249c.171.702 1.092 1.261 2.762 1.678l5.977-1.46 1.299-1.101 1.101 1.299c.186.759-2.74 3.846-8.776 9.26-4.031 5.066-5.668 9.145-4.913 12.238l.361 1.48c.176.721 1.109 1.287 2.798 1.699l2.22-.542 25.729-14.184c.241.986-7.033 5.658-21.82 14.014.12.493-1.309 1.103-4.288 1.831l-2.22.542c-2.726-.38-4.393-1.813-5-4.298-.931-3.814 2.512-10.173 10.329-19.08-4.616.445-7.392-1.25-8.328-5.082-1.33-5.446 4.036-12.537 16.097-21.272l2.22-.542zM432.359 29.582l.264 1.081c-6.223 1.52-18.797 8.24-37.72 20.159-17.434 13.163-26.497 22.484-27.19 27.961.505 2.068 5.616 3.323 15.335 3.764 7.903 2.152 12.593 4.847 14.067 8.085l1.11-.27-.833-.943-4.782-19.58c-.463-1.898-1.396-4.938-2.799-9.118l.978-.812.805.95 4.121 16.876c1.445 5.92 3.712 12.856 6.8 20.807l-.95.805c-1.226-.987-3.338-4.12-6.336-9.4-2.807-3.838-10.894-6.286-24.261-7.345-2.4-.359-3.89-1.724-4.469-4.096l-.396-1.622c5.704-8.67 16.209-18.343 31.516-29.018 6.292-4.612 17.872-10.707 34.74-18.284z" fill="#000"/><path d="M417.712 76.797c2.489.397 3.964 1.083 4.423 2.056-1.485 4.706-4.208 8.497-8.17 11.374-.847.73-1.527 1.157-2.039 1.282l-1.102-1.299c5.227-4.614 8.071-7.912 8.531-9.894l-.18-.74c-7.061 3.112-10.031 6.963-8.91 11.555l.361 1.48c.362 1.48 1.529 1.979 3.502 1.497l14.049-6.567.74-.18.18.74c-7.177 4.365-11.552 6.74-13.127 7.125l-.74.181c-2.922.714-5.257-.284-7.004-2.994-1.223-5.01 1.939-10.215 9.486-15.616z" fill="#000"/><path d="M432.732 73.22l.939-.23c.474-.116 1.076.25 1.806 1.097l.827 3.387c-.128 5.078-.145 7.806-.052 8.185.808 1.17 1.45 1.697 1.924 1.581l1.935-.472c2.164-2.338 3.985-3.979 5.463-4.923-2.248 3.967-4.596 6.25-7.044 6.847-1.681.029-2.793-1.067-3.336-3.287-1.83 3.865-2.888 5.832-3.173 5.902l-1.451.354c-.512.125-1.315-.362-2.408-1.463l-.354-1.451c-1.385-9.212.256-14.388 4.924-15.527zm-3.787 7.589l.584 2.39c.96 1.133 2.085 1.542 3.376 1.227 1.889-3.377 2.542-6.26 1.958-8.651l-.354-1.451c-2.391.583-3.636 1.742-3.735 3.475-.873.213-1.483 1.216-1.829 3.01zm-.749 3.229l.343 3.505c.874 2.179 1.633 3.19 2.279 3.032.579-.262 1.515-2.028 2.807-5.3-1.366.334-3.176-.078-5.429-1.237z" fill="#000"/><path d="M445.071 68.548l2.362-.577.577 2.362c-.761 1.493-1.7 5.633-2.818 12.42l.769-.188c-.306-1.252 2.017-5.449 6.968-12.589l.797-.194.772 3.159.551 5.716c5.082-6.69 7.351-11.144 6.809-13.364l2.362-.577c-.771 5.979-.474 11.767.893 17.364-.797.194-1.851-.664-3.162-2.576L461.807 72c-.797.195-3.385 4.456-7.765 12.783l-1.565.383.43-8.49-.577-2.362c-3.043 3.84-5.97 10.134-8.779 18.882l-.797.195c-.468-1.917.369-9.932 2.512-24.047l-.195-.796z" fill="#000"/></svg>